<svg width="25" height="25" viewBox="0 0 25 25" fill="none" xmlns="http://www.w3.org/2000/svg">
<rect width="25" height="25" fill="#BD0000"/>
<path d="M10.6364 6.36364V18H9.27273L2.93182 8.86364H2.81818V18H1.40909V6.36364H2.77273L9.13636 15.5227H9.25V6.36364H10.6364ZM21.4105 10C21.2855 9.61742 21.1207 9.27462 20.9162 8.97159C20.7154 8.66477 20.4749 8.40341 20.1946 8.1875C19.9181 7.97159 19.6037 7.80682 19.2514 7.69318C18.8991 7.57955 18.5128 7.52273 18.0923 7.52273C17.4029 7.52273 16.776 7.70076 16.2116 8.05682C15.6473 8.41288 15.1984 8.9375 14.8651 9.63068C14.5317 10.3239 14.3651 11.1742 14.3651 12.1818C14.3651 13.1894 14.5336 14.0398 14.8707 14.733C15.2079 15.4261 15.6643 15.9508 16.2401 16.3068C16.8158 16.6629 17.4635 16.8409 18.1832 16.8409C18.8499 16.8409 19.437 16.6989 19.9446 16.4148C20.456 16.1269 20.8537 15.7216 21.1378 15.1989C21.4257 14.6723 21.5696 14.053 21.5696 13.3409L22.0014 13.4318H18.5014V12.1818H22.9332V13.4318C22.9332 14.3902 22.7287 15.2235 22.3196 15.9318C21.9143 16.6402 21.3537 17.1894 20.6378 17.5795C19.9257 17.9659 19.1075 18.1591 18.1832 18.1591C17.1529 18.1591 16.2476 17.9167 15.4673 17.4318C14.6908 16.947 14.0848 16.2576 13.6491 15.3636C13.2173 14.4697 13.0014 13.4091 13.0014 12.1818C13.0014 11.2614 13.1245 10.4337 13.3707 9.69886C13.6207 8.96023 13.973 8.33144 14.4276 7.8125C14.8821 7.29356 15.42 6.89583 16.0412 6.61932C16.6624 6.3428 17.3461 6.20455 18.0923 6.20455C18.706 6.20455 19.2779 6.29735 19.8082 6.48295C20.3423 6.66477 20.8177 6.92424 21.2344 7.26136C21.6548 7.5947 22.0052 7.99432 22.2855 8.46023C22.5658 8.92235 22.759 9.43561 22.8651 10H21.4105Z" fill="white"/>
</svg>
